<mxfile host="app.diagrams.net" agent="Mozilla/5.0 (Macintosh; Intel Mac OS X 10.15; rv:139.0) Gecko/20100101 Firefox/139.0" version="27.1.6">
  <diagram name="Page-1" id="rCPahlJchx8FafpQyDZb">
    <mxGraphModel dx="1247" dy="782" grid="1" gridSize="10" guides="1" tooltips="1" connect="1" arrows="1" fold="1" page="1" pageScale="1" pageWidth="850" pageHeight="1100" math="0" shadow="0">
      <root>
        <mxCell id="0" />
        <mxCell id="1" parent="0" />
        <mxCell id="mOnFJLAUQlqI7besxTUC-1" value="&lt;div&gt;Network&lt;/div&gt;&lt;div&gt;Devices&lt;/div&gt;" style="ellipse;shape=cloud;whiteSpace=wrap;html=1;" vertex="1" parent="1">
          <mxGeometry x="720" y="360" width="120" height="80" as="geometry" />
        </mxCell>
        <mxCell id="mOnFJLAUQlqI7besxTUC-2" value="Prom" style="shape=cylinder3;whiteSpace=wrap;html=1;boundedLbl=1;backgroundOutline=1;size=15;" vertex="1" parent="1">
          <mxGeometry x="40" y="360" width="60" height="80" as="geometry" />
        </mxCell>
        <mxCell id="mOnFJLAUQlqI7besxTUC-3" value="&lt;div&gt;NATS&lt;/div&gt;&lt;div&gt;Jetstream&lt;/div&gt;" style="shape=hexagon;perimeter=hexagonPerimeter2;whiteSpace=wrap;html=1;fixedSize=1;" vertex="1" parent="1">
          <mxGeometry x="361" y="360" width="120" height="80" as="geometry" />
        </mxCell>
        <mxCell id="mOnFJLAUQlqI7besxTUC-4" value="&lt;div&gt;gNMIC&lt;/div&gt;&lt;div&gt;Ingress&lt;/div&gt;" style="shape=process;whiteSpace=wrap;html=1;backgroundOutline=1;" vertex="1" parent="1">
          <mxGeometry x="540" y="370" width="120" height="60" as="geometry" />
        </mxCell>
        <mxCell id="mOnFJLAUQlqI7besxTUC-5" value="&lt;div&gt;gNMIC&lt;/div&gt;&lt;div&gt;Egress&lt;/div&gt;" style="shape=process;whiteSpace=wrap;html=1;backgroundOutline=1;" vertex="1" parent="1">
          <mxGeometry x="170" y="370" width="120" height="60" as="geometry" />
        </mxCell>
        <mxCell id="mOnFJLAUQlqI7besxTUC-6" value="&lt;div&gt;remote&lt;/div&gt;&lt;div&gt;write&lt;/div&gt;" style="endArrow=classic;html=1;rounded=0;entryX=1;entryY=0.5;entryDx=0;entryDy=0;entryPerimeter=0;exitX=0;exitY=0.5;exitDx=0;exitDy=0;" edge="1" parent="1" source="mOnFJLAUQlqI7besxTUC-5" target="mOnFJLAUQlqI7besxTUC-2">
          <mxGeometry width="50" height="50" relative="1" as="geometry">
            <mxPoint x="400" y="430" as="sourcePoint" />
            <mxPoint x="450" y="380" as="targetPoint" />
          </mxGeometry>
        </mxCell>
        <mxCell id="mOnFJLAUQlqI7besxTUC-7" value="sub counters" style="endArrow=classic;html=1;rounded=0;exitX=0;exitY=0.25;exitDx=0;exitDy=0;entryX=1;entryY=0.25;entryDx=0;entryDy=0;" edge="1" parent="1" source="mOnFJLAUQlqI7besxTUC-3" target="mOnFJLAUQlqI7besxTUC-5">
          <mxGeometry x="-0.0148" y="-14" width="50" height="50" relative="1" as="geometry">
            <mxPoint x="400" y="430" as="sourcePoint" />
            <mxPoint x="450" y="380" as="targetPoint" />
            <mxPoint as="offset" />
          </mxGeometry>
        </mxCell>
        <mxCell id="mOnFJLAUQlqI7besxTUC-8" value="pub counters" style="endArrow=classic;html=1;rounded=0;exitX=0;exitY=0.25;exitDx=0;exitDy=0;entryX=1;entryY=0.25;entryDx=0;entryDy=0;" edge="1" parent="1" source="mOnFJLAUQlqI7besxTUC-4" target="mOnFJLAUQlqI7besxTUC-3">
          <mxGeometry x="-0.0989" y="-14" width="50" height="50" relative="1" as="geometry">
            <mxPoint x="371" y="400" as="sourcePoint" />
            <mxPoint x="480" y="400" as="targetPoint" />
            <mxPoint as="offset" />
          </mxGeometry>
        </mxCell>
        <mxCell id="mOnFJLAUQlqI7besxTUC-9" value="sub sample 15s" style="endArrow=classic;html=1;rounded=0;entryX=1;entryY=0.25;entryDx=0;entryDy=0;" edge="1" parent="1" source="mOnFJLAUQlqI7besxTUC-1" target="mOnFJLAUQlqI7besxTUC-4">
          <mxGeometry x="-0.1899" y="-30" width="50" height="50" relative="1" as="geometry">
            <mxPoint x="400" y="430" as="sourcePoint" />
            <mxPoint x="450" y="380" as="targetPoint" />
            <mxPoint as="offset" />
          </mxGeometry>
        </mxCell>
        <mxCell id="mOnFJLAUQlqI7besxTUC-10" value="sub push on_change" style="endArrow=classic;html=1;rounded=0;entryX=1;entryY=0.75;entryDx=0;entryDy=0;" edge="1" parent="1" source="mOnFJLAUQlqI7besxTUC-1" target="mOnFJLAUQlqI7besxTUC-4">
          <mxGeometry x="-0.1899" y="30" width="50" height="50" relative="1" as="geometry">
            <mxPoint x="781" y="418" as="sourcePoint" />
            <mxPoint x="720" y="410" as="targetPoint" />
            <mxPoint as="offset" />
          </mxGeometry>
        </mxCell>
        <mxCell id="mOnFJLAUQlqI7besxTUC-11" value="pub states" style="endArrow=classic;html=1;rounded=0;exitX=0;exitY=0.75;exitDx=0;exitDy=0;entryX=1;entryY=0.75;entryDx=0;entryDy=0;" edge="1" parent="1" source="mOnFJLAUQlqI7besxTUC-4" target="mOnFJLAUQlqI7besxTUC-3">
          <mxGeometry x="-0.0989" y="14" width="50" height="50" relative="1" as="geometry">
            <mxPoint x="568" y="382" as="sourcePoint" />
            <mxPoint x="500" y="380" as="targetPoint" />
            <mxPoint as="offset" />
          </mxGeometry>
        </mxCell>
        <mxCell id="mOnFJLAUQlqI7besxTUC-12" value="sub states" style="endArrow=classic;html=1;rounded=0;exitX=0;exitY=0.75;exitDx=0;exitDy=0;entryX=1;entryY=0.75;entryDx=0;entryDy=0;" edge="1" parent="1" source="mOnFJLAUQlqI7besxTUC-3" target="mOnFJLAUQlqI7besxTUC-5">
          <mxGeometry x="-0.0148" y="14" width="50" height="50" relative="1" as="geometry">
            <mxPoint x="390" y="400" as="sourcePoint" />
            <mxPoint x="310" y="402" as="targetPoint" />
            <mxPoint as="offset" />
          </mxGeometry>
        </mxCell>
      </root>
    </mxGraphModel>
  </diagram>
</mxfile>
